<?xml version="1.0" encoding="utf-8"?>
<!-- Generator: Adobe Illustrator 22.1.0, SVG Export Plug-In . SVG Version: 6.00 Build 0)  -->
<svg version="1.1" id="Layer_1_copy_5" xmlns="http://www.w3.org/2000/svg" xmlns:xlink="http://www.w3.org/1999/xlink" x="0px"
	 y="0px" viewBox="0 0 16 16" style="enable-background:new 0 0 16 16;" xml:space="preserve" width="16" height="16">
<style type="text/css">
	.st0{fill:#9fa2a6;}
</style>
<g>
	<path class="st0" d="M13,3h-1V2c0-0.55-0.45-1-1-1s-1,0.45-1,1v1H6V2c0-0.55-0.45-1-1-1S4,1.45,4,2v1H3C1.9,3,1,3.9,1,5v8
		c0,1.1,0.9,2,2,2h10c1.1,0,2-0.9,2-2V5C15,3.9,14.1,3,13,3z M11,2L11,2l0,1h0L11,2z M5,2L5,2l0,1h0L5,2z M13,13H3V6h10V13z"/>
	<circle class="st0" cx="8" cy="8" r="1"/>
	<circle class="st0" cx="5" cy="8" r="1"/>
	<circle class="st0" cx="5" cy="11" r="1"/>
	<circle class="st0" cx="8" cy="11" r="1"/>
	<circle class="st0" cx="11" cy="11" r="1"/>
	<circle class="st0" cx="11" cy="8" r="1"/>
</g>
</svg>
